<?xml version="1.0" standalone="no"?>
<!DOCTYPE svg PUBLIC "-//W3C//DTD SVG 20010904//EN"
 "http://www.w3.org/TR/2001/REC-SVG-20010904/DTD/svg10.dtd">
<svg version="1.0" xmlns="http://www.w3.org/2000/svg"
 width="921.000000pt" height="921.000000pt" viewBox="0 0 921.000000 921.000000"
 preserveAspectRatio="xMidYMid meet">
<metadata>
Created by potrace 1.11, written by Peter Selinger 2001-2013
</metadata>
<g transform="translate(0.000000,921.000000) scale(0.100000,-0.100000)"
fill="#000000" stroke="none">
<path d="M4330 9199 c-873 -50 -1748 -366 -2451 -886 -356 -264 -718 -626
-979 -978 -691 -936 -1005 -2125 -865 -3276 90 -739 350 -1432 768 -2047 273
-402 674 -817 1076 -1115 1269 -939 2965 -1155 4436 -565 452 181 878 437
1260 756 155 130 482 466 616 634 838 1050 1176 2372 944 3693 -121 685 -409
1357 -825 1920 -185 250 -512 601 -735 787 -916 766 -2058 1145 -3245 1077z
m780 -103 c885 -108 1640 -425 2343 -985 178 -141 523 -488 668 -671 555 -698
866 -1444 976 -2340 25 -207 25 -783 0 -990 -84 -687 -281 -1268 -625 -1840
-307 -512 -781 -1019 -1277 -1366 -620 -435 -1311 -696 -2095 -791 -207 -25
-783 -25 -990 0 -898 109 -1647 423 -2353 986 -178 141 -523 488 -668 671
-555 698 -866 1444 -976 2340 -25 207 -25 783 0 990 110 896 421 1642 976
2340 145 183 490 530 668 671 754 601 1580 927 2538 1003 127 10 686 -3 815
-18z"/>
<path d="M4350 8889 c-837 -50 -1645 -347 -2321 -854 -378 -283 -743 -670
-996 -1053 -159 -241 -323 -554 -416 -792 -301 -769 -378 -1569 -231 -2380
100 -552 324 -1101 647 -1592 298 -451 744 -898 1196 -1196 325 -213 681 -387
1036 -504 775 -255 1631 -283 2420 -78 937 243 1743 779 2347 1560 270 350
508 802 658 1249 257 770 286 1635 80 2427 -77 296 -166 535 -305 819 -210
428 -448 763 -790 1114 -544 557 -1231 955 -1989 1151 -433 112 -884 156
-1336 129z m750 -43 c402 -52 724 -133 1080 -273 1388 -546 2404 -1803 2644
-3268 43 -265 51 -374 51 -705 0 -406 -27 -653 -111 -1000 -372 -1554 -1600
-2781 -3154 -3154 -346 -84 -594 -111 -1000 -111 -406 0 -654 27 -1000 111
-1551 372 -2767 1584 -3150 3139 -87 351 -115 602 -115 1015 0 413 28 664 115
1015 250 1014 852 1891 1710 2492 582 408 1306 676 2000 742 63 6 131 13 150
15 88 10 662 -4 780 -18z"/>
<path d="M1490 4610 l0 -700 110 0 110 0 0 451 c0 247 3 448 8 445 4 -2 99
-205 212 -450 l205 -445 91 -1 90 0 210 452 209 452 3 -452 2 -452 110 0 110
0 0 700 0 701 -105 -3 -105 -3 -256 -540 c-140 -297 -259 -544 -263 -548 -4
-4 -124 240 -267 542 l-259 550 -107 1 -108 0 0 -700z"/>
<path d="M4037 5283 c-27 -53 -607 -1359 -607 -1366 0 -4 50 -6 112 -5 l111 3
62 145 62 145 363 0 363 0 62 -145 62 -145 111 -3 c62 -1 112 1 112 5 0 4
-139 319 -308 698 l-308 690 -91 3 c-92 3 -92 3 -106 -25z m243 -565 c74 -171
137 -315 138 -320 2 -4 -123 -8 -278 -8 -155 0 -280 4 -278 8 40 101 274 632
278 632 3 0 66 -140 140 -312z"/>
<path d="M4997 5297 c4 -7 122 -181 261 -385 l252 -371 0 -316 0 -315 110 0
110 0 0 315 0 316 253 371 c138 204 256 378 260 385 6 10 -15 13 -112 13
l-120 0 -192 -285 c-105 -157 -195 -285 -199 -285 -4 0 -94 128 -199 285
l-192 285 -120 0 c-97 0 -118 -3 -112 -13z"/>
<path d="M6987 5283 c-27 -53 -607 -1359 -607 -1366 0 -4 50 -6 112 -5 l111 3
62 145 62 145 363 0 363 0 62 -145 62 -145 111 -3 c62 -1 112 1 112 5 0 4
-139 319 -308 698 l-308 690 -91 3 c-92 3 -92 3 -106 -25z m243 -565 c74 -171
137 -315 138 -320 2 -4 -123 -8 -278 -8 -155 0 -280 4 -278 8 40 101 274 632
278 632 3 0 66 -140 140 -312z"/>
</g>
</svg>
